<?xml version="1.0" standalone="no"?>
<!DOCTYPE svg PUBLIC "-//W3C//DTD SVG 20010904//EN"
 "http://www.w3.org/TR/2001/REC-SVG-20010904/DTD/svg10.dtd">
<svg version="1.0" xmlns="http://www.w3.org/2000/svg"
 width="1280.000000pt" height="1280.000000pt" viewBox="0 0 1280.000000 1280.000000"
 preserveAspectRatio="xMidYMid meet">
<metadata>
Created by potrace 1.11, written by Peter Selinger 2001-2013
</metadata>
<g transform="translate(0.000000,1280.000000) scale(0.100000,-0.100000)"
fill="#000000" stroke="none">
<path d="M2170 9922 c0 -6 39 -54 78 -97 20 -22 66 -74 102 -115 56 -64 103
-118 145 -164 6 -6 73 -83 150 -171 77 -88 149 -169 160 -181 11 -12 31 -34
44 -50 14 -16 77 -88 140 -160 64 -71 143 -161 176 -199 33 -38 65 -73 70 -79
6 -6 46 -52 89 -101 l80 -90 -1047 -5 -1046 -5 37 -40 c20 -22 66 -74 102
-115 63 -72 114 -131 135 -154 6 -6 42 -47 80 -91 39 -44 84 -95 101 -115 59
-66 129 -146 159 -181 79 -91 330 -377 354 -404 15 -16 78 -88 141 -160 63
-71 118 -131 122 -133 4 -2 8 -9 8 -16 0 -11 -200 -13 -1035 -13 -570 0 -1037
-2 -1040 -4 -2 -3 10 -20 28 -39 18 -19 66 -73 107 -120 41 -47 80 -90 85 -96
6 -6 37 -42 70 -79 33 -38 65 -73 70 -79 6 -6 57 -65 115 -131 57 -66 107
-122 110 -125 3 -3 34 -39 70 -80 36 -41 71 -82 79 -90 8 -8 75 -84 150 -170
75 -85 143 -162 151 -170 8 -8 28 -31 44 -50 15 -19 45 -53 65 -75 20 -22 68
-76 106 -120 39 -44 84 -95 101 -115 17 -19 87 -98 154 -175 67 -77 149 -169
180 -205 32 -36 97 -110 145 -165 188 -214 211 -239 230 -261 52 -58 132 -150
150 -173 11 -14 29 -35 41 -46 12 -11 48 -51 80 -90 32 -38 66 -76 74 -85 8
-9 42 -47 75 -85 33 -38 67 -76 75 -85 8 -8 78 -88 155 -175 76 -88 142 -162
145 -165 5 -5 106 -119 175 -199 17 -19 37 -42 45 -51 8 -9 30 -34 49 -55 19
-22 64 -74 101 -115 37 -41 82 -93 101 -115 19 -21 41 -46 49 -55 21 -23 121
-137 220 -250 30 -35 75 -86 100 -112 l45 -48 3127 2 3126 3 -75 85 c-41 47
-87 99 -102 115 -14 17 -58 66 -96 110 -39 44 -74 85 -80 91 -27 30 -142 160
-220 249 -48 55 -104 118 -124 140 -20 22 -66 74 -101 115 -36 41 -67 77 -70
80 -3 3 -36 41 -75 85 -38 43 -77 87 -85 95 -8 9 -28 32 -44 51 -16 19 -59 68
-96 109 -37 41 -69 80 -73 86 -5 8 270 11 1033 11 572 0 1042 2 1044 4 4 4
-49 67 -189 224 -34 39 -95 108 -136 155 -41 47 -76 87 -79 90 -5 5 -69 77
-220 250 -31 36 -96 110 -145 165 -48 55 -99 114 -114 130 -14 17 -73 84 -131
150 -58 66 -107 122 -110 125 -3 3 -27 30 -54 60 l-49 55 1044 5 1043 5 -49
56 c-28 30 -77 86 -110 124 -33 37 -69 78 -80 90 -11 13 -45 51 -75 85 -30 35
-59 68 -65 74 -6 6 -75 85 -155 176 -79 91 -159 181 -176 200 -17 19 -53 60
-80 91 -42 48 -158 179 -189 213 -5 6 -57 65 -114 131 -58 66 -110 125 -115
130 -6 6 -40 44 -76 85 -36 41 -67 77 -70 80 -3 3 -34 39 -70 80 -36 41 -74
84 -85 95 -11 11 -30 32 -41 47 -19 24 -69 81 -169 193 -11 13 -33 38 -49 56
-16 19 -59 68 -95 109 -36 41 -78 88 -92 105 -26 30 -104 118 -163 185 -17 19
-78 89 -136 155 -57 66 -119 136 -136 155 -18 19 -67 76 -110 125 -43 50 -81
92 -84 95 -3 3 -34 39 -70 80 -81 94 -122 140 -136 154 -6 6 -44 49 -85 96
-72 83 -124 141 -144 164 -6 6 -39 45 -75 86 -36 41 -72 82 -80 90 -13 13
-112 125 -199 225 -24 28 -133 151 -207 235 -17 19 -61 69 -97 110 l-65 75
-3126 0 c-1719 0 -3126 -2 -3126 -3z"/>
</g>
</svg>
