<?xml version="1.0" encoding="iso-8859-1"?>
<!-- Generator: Adobe Illustrator 19.0.0, SVG Export Plug-In . SVG Version: 6.00 Build 0)  -->
<svg xmlns="http://www.w3.org/2000/svg" xmlns:xlink="http://www.w3.org/1999/xlink" version="1.1" id="Capa_1" x="0px" y="0px" viewBox="0 0 512 512" style="enable-background:new 0 0 512 512;" xml:space="preserve" width="512px" height="512px">
<g>
	<g>
		<g>
			<path d="M505.142,179.367l-136.801-27.348c6.318-14.466,10.134-29.9,11.284-45.644C379.625,47.717,329.175,0,267.158,0     S154.692,47.717,154.692,106.375c0,17.254,9.303,43.373,22.253,71.313l-6.281,1.325L10.292,145.25     c-2.516-0.529-5.137,0.105-7.133,1.725c-1.997,1.62-3.157,4.054-3.158,6.625v315.733c0.001,4.035,2.827,7.518,6.775,8.35     l162.133,34.133c1.159,0.244,2.357,0.244,3.517,0l160.42-33.772l168.946,33.789c0.552,0.109,1.112,0.165,1.675,0.167     c4.713-0.001,8.533-3.821,8.533-8.533V187.733C511.997,183.667,509.128,180.167,505.142,179.367z M162.133,492.95L17.067,462.408     V354.625c30.072,8.898,94.276,31.966,145.067,77.447V492.95z M162.133,409.667c-43.232-33.357-92.485-58.073-145.067-72.796     v-68.458c30.706-14.645,96.563-37.079,145.067,8.477V409.667z M162.133,254.662c-51.049-36.907-113.898-18.302-145.067-4.954     v-85.592l145.067,30.542V254.662z M179.2,492.95v-44.233c10.824,11.678,20.333,24.51,28.355,38.263L179.2,492.95z      M324.267,462.408l-99.182,20.881c-12.147-21.813-27.629-41.594-45.885-58.626V295.425c12.022,15.665,22.438,32.5,31.092,50.25     c20.328,38.924,38.16,72.644,113.975,80.194V462.408z M324.267,408.754c-65.207-6.883-79.534-33.996-98.85-70.979     c-11.834-24.926-27.421-47.891-46.217-68.092V194.65l5.364-1.13c19.878,39.174,42.031,77.152,66.344,113.739     c3.708,5.311,9.777,8.475,16.254,8.475c6.477,0,12.546-3.164,16.254-8.475c7.851-11.549,23.995-36.816,40.85-66.295V408.754z      M325.049,204.21c-0.038,0.084-0.092,0.154-0.127,0.24c-16.95,31.992-35.514,63.102-55.622,93.209     c-0.526,0.639-1.31,1.008-2.138,1.008s-1.611-0.37-2.138-1.008c-32.525-47.817-93.267-153.025-93.267-191.283     c0-49.242,42.8-89.309,95.4-89.309c52.6,0,95.4,40.067,95.4,89.308C362.558,126.486,345.714,165.133,325.049,204.21z      M494.933,493.058l-153.6-30.717v-35.205c6.171,0.298,12.227,0.497,18.025,0.497c71.208,0,114.813-21.171,135.575-34.851V493.058     z M494.933,371.61c-11.11,9.12-59.473,43.059-153.6,38.362V244c35.692,49.436,92.634,79.112,153.6,80.051V371.61z      M494.933,306.994c-107.438-4.039-148.001-83.291-153.6-95.482v-1.58c7.39-14.028,14.407-28.251,20.367-41.837l133.233,26.639     V306.994z" fill="#FFFFFF"/>
			<path d="M267.158,56.258c-28.277,0-51.2,22.923-51.2,51.2s22.923,51.2,51.2,51.2c28.264-0.031,51.169-22.936,51.2-51.2     C318.358,79.181,295.435,56.258,267.158,56.258z M267.158,141.592c-18.844-0.019-34.115-15.29-34.133-34.133     c0-18.851,15.282-34.133,34.133-34.133s34.133,15.282,34.133,34.133S286.01,141.592,267.158,141.592z" fill="#FFFFFF"/>
		</g>
	</g>
</g>
<g>
</g>
<g>
</g>
<g>
</g>
<g>
</g>
<g>
</g>
<g>
</g>
<g>
</g>
<g>
</g>
<g>
</g>
<g>
</g>
<g>
</g>
<g>
</g>
<g>
</g>
<g>
</g>
<g>
</g>
</svg>
