<?xml version="1.0" encoding="iso-8859-1"?>
<!-- Generator: Adobe Illustrator 19.0.0, SVG Export Plug-In . SVG Version: 6.00 Build 0)  -->
<svg xmlns="http://www.w3.org/2000/svg" xmlns:xlink="http://www.w3.org/1999/xlink" version="1.1" id="Capa_1" x="0px" y="0px" viewBox="0 0 512.008 512.008" style="enable-background:new 0 0 512.008 512.008;" xml:space="preserve" width="512px" height="512px">
<g transform="translate(0 -1)">
	<g>
		<g>
			<path d="M460.804,1.008c-3.474-0.02-6.941,0.33-10.342,1.042c-0.248,0.094-0.492,0.201-0.729,0.32     c-0.548,0.174-1.076,0.406-1.575,0.691c-0.462,0.25-0.899,0.544-1.304,0.878c-0.419,0.358-0.8,0.757-1.14,1.191     c-0.335,0.407-0.63,0.845-0.881,1.308c-0.25,0.481-0.451,0.986-0.602,1.507c-0.17,0.542-0.282,1.1-0.335,1.666     c-0.066,0.258-0.119,0.519-0.158,0.782v50.35H269.944c-11.13-35.934-44.592-60.248-82.206-59.733     c-37.614-0.515-71.077,23.8-82.206,59.733h-37.26v-50.35c-0.039-0.264-0.092-0.525-0.158-0.783     c-0.053-0.565-0.166-1.122-0.335-1.663c-0.15-0.522-0.352-1.028-0.602-1.51c-0.252-0.462-0.547-0.899-0.881-1.306     c-1.043-1.291-2.439-2.25-4.019-2.76c-0.237-0.119-0.481-0.226-0.729-0.32c-3.401-0.712-6.867-1.061-10.342-1.042     c-13.59-0.034-26.632,5.349-36.242,14.958C5.353,25.576-0.03,38.618,0.004,52.208v409.6c0.031,28.264,22.936,51.169,51.2,51.2     h409.6c28.264-0.031,51.169-22.936,51.2-51.2v-409.6C511.973,23.944,489.068,1.039,460.804,1.008z M375.471,77.808h68.267v25.6     h-68.267V77.808z M272.835,77.808h34.369v136.533h-93.819c21.996-35.376,59.685-101.705,59.685-132.117     C273.071,80.734,272.919,79.279,272.835,77.808z M187.737,18.075c36.537-1.06,67.055,27.618,68.267,64.15     c0,26.344-39.644,96.758-63.754,134.352c-1.084,0.978-1.892,2.224-2.346,3.611c-0.625,0.96-1.293,2.005-1.892,2.912     c-23.9-35.333-68.542-112.925-68.542-140.875C120.683,45.693,151.201,17.015,187.737,18.075z M68.271,77.808h34.369     c-0.083,1.471-0.235,2.926-0.235,4.417c0,30.414,37.692,96.747,59.683,132.117H68.271V77.808z M17.071,52.208     c-0.014-9.043,3.554-17.724,9.925-24.142c6.427-6.407,15.134-10,24.208-9.992v392.533c-12.613,0.004-24.776,4.688-34.133,13.145     V52.208z M51.204,495.941c-18.844-0.019-34.115-15.29-34.133-34.133c0.019-18.844,15.29-34.115,34.133-34.133     c2.259-0.018,4.513,0.203,6.725,0.658c0.307,0.022,0.615,0.027,0.923,0.013c0.292,0.076,0.587,0.136,0.885,0.179     c0.273,0,0.503-0.13,0.77-0.155c2.771-0.22,5.242-1.827,6.566-4.271c0.283-0.497,0.513-1.022,0.685-1.567     c0.12-0.238,0.227-0.482,0.321-0.731c0.021-0.305,0.026-0.611,0.012-0.917c0.077-0.294,0.136-0.591,0.179-0.892V282.608h238.933     v39.133l-174.2,174.2H51.204z M307.204,495.941h-77.617l77.617-77.617V495.941z M360.902,396.039     c-1.601,1.601-2.499,3.772-2.498,6.035v93.867h-34.133v-98.217c-0.01-3.449-2.093-6.554-5.281-7.871s-6.855-0.588-9.296,1.849     l-104.24,104.239h-48.317L321.76,331.319c1.597-1.607,2.499-3.778,2.51-6.044v-51.2c0.001-2.264-0.897-4.435-2.498-6.035     c-1.601-1.601-3.772-2.499-6.035-2.498H68.271v-34.133h104.771c0.257,0.385,0.592,0.898,0.829,1.25     c3.142,4.559,8.324,7.282,13.86,7.283s10.72-2.718,13.865-7.275c0.24-0.354,0.575-0.87,0.835-1.258h113.306     c2.264,0.001,4.435-0.897,6.035-2.498c1.601-1.601,2.499-3.772,2.498-6.035V77.808h34.133v34.133     c-0.001,2.264,0.897,4.435,2.498,6.035s3.772,2.499,6.035,2.498h76.8v34.133h-76.8c-2.264-0.001-4.435,0.897-6.035,2.498     s-2.499,3.772-2.498,6.035v187.733c-0.001,2.264,0.897,4.435,2.498,6.035s3.772,2.499,6.035,2.498h76.8v34.133h-76.8     C364.674,393.54,362.503,394.439,360.902,396.039z M443.737,171.675v170.667h-68.267V171.675H443.737z M460.804,495.941h-85.333     v-85.333h68.267v9.383c0.043,0.3,0.103,0.597,0.179,0.891c-0.013,0.306-0.009,0.612,0.013,0.918     c0.094,0.249,0.201,0.492,0.321,0.73c0.174,0.549,0.406,1.078,0.693,1.579c1.033,1.909,2.79,3.322,4.876,3.922     c0.548,0.172,1.112,0.286,1.683,0.34c0.266,0.025,0.496,0.155,0.769,0.155c0.586-0.175,1.199-0.24,1.808-0.192     c2.212-0.455,4.466-0.676,6.725-0.658c18.851,0,34.133,15.282,34.133,34.133C494.937,480.659,479.655,495.941,460.804,495.941z      M494.937,423.753c-9.358-8.457-21.52-13.141-34.133-13.145V18.075c18.844,0.019,34.115,15.29,34.133,34.133V423.753z" fill="#FFFFFF"/>
			<path d="M230.404,86.341c0-23.564-19.103-42.667-42.667-42.667s-42.667,19.102-42.667,42.667     c0.028,23.553,19.114,42.639,42.667,42.667C211.302,129.008,230.404,109.905,230.404,86.341z M187.737,111.941     c-14.138,0-25.6-11.462-25.6-25.6c0.015-14.132,11.468-25.585,25.6-25.6c14.138,0,25.6,11.461,25.6,25.6     S201.876,111.941,187.737,111.941z" fill="#FFFFFF"/>
		</g>
	</g>
</g>
<g>
</g>
<g>
</g>
<g>
</g>
<g>
</g>
<g>
</g>
<g>
</g>
<g>
</g>
<g>
</g>
<g>
</g>
<g>
</g>
<g>
</g>
<g>
</g>
<g>
</g>
<g>
</g>
<g>
</g>
</svg>
