<?xml version="1.0" encoding="iso-8859-1"?>
<!-- Generator: Adobe Illustrator 19.0.0, SVG Export Plug-In . SVG Version: 6.00 Build 0)  -->
<svg xmlns="http://www.w3.org/2000/svg" xmlns:xlink="http://www.w3.org/1999/xlink" version="1.1" id="Capa_1" x="0px" y="0px" viewBox="0 0 507.971 507.971" style="enable-background:new 0 0 507.971 507.971;" xml:space="preserve" width="512px" height="512px">
<g>
	<g>
		<g>
			<path d="M408.114,401.04L241.235,245.325c8.66-12.22,12.197-27.342,9.854-42.135l140.515-42.227     c13.315,29.123,46.901,42.971,76.873,31.696c29.972-11.274,46.104-43.824,36.925-74.503     c-9.18-30.679-40.539-49.018-71.777-41.977c-31.239,7.041-51.698,37.06-46.83,68.71L246.28,187.117     c-7.153-15.533-20.736-27.166-37.184-31.845c-16.448-4.679-34.12-1.938-48.378,7.504l-57.075-64.218     c17.72-21.075,18.411-51.633,1.662-73.488S58.868-4.061,33.911,7.57C8.954,19.202-4.565,46.616,1.4,73.496     c5.965,26.88,29.811,46.003,57.345,45.986c11.499,0.006,22.744-3.384,32.323-9.745l57.075,64.218     c-11.919,14.068-16.524,32.925-12.43,50.903s16.41,32.982,33.245,40.501l-35.169,123.308     c-30.537-4.134-59.08,16.028-65.39,46.191c-6.311,30.163,11.754,60.076,41.387,68.532c29.633,8.456,60.764-7.42,71.321-36.371     s-3.048-61.139-31.168-73.743l35.202-123.308c15.953,2.318,32.146-2.171,44.628-12.372l166.878,155.715     c-17.664,25.358-12.732,60.055,11.298,79.486s58.992,16.991,80.09-5.59c21.098-22.581,21.162-57.627,0.146-80.285     C467.167,384.265,432.215,381.697,408.114,401.04z M444.843,94.302c23.178,0,41.967,18.789,41.967,41.967     s-18.789,41.967-41.967,41.967c-23.178,0-41.967-18.789-41.967-41.967C402.904,113.103,421.677,94.33,444.843,94.302z      M58.745,102.695c-23.178,0-41.967-18.789-41.967-41.967c0.028-23.166,18.801-41.939,41.967-41.967     c23.178,0,41.967,18.789,41.967,41.967S81.923,102.695,58.745,102.695z M167.86,446.827c0,23.178-18.789,41.967-41.967,41.967     c-23.178,0-41.967-18.789-41.967-41.967c0-23.178,18.789-41.967,41.967-41.967C149.059,404.887,167.832,423.66,167.86,446.827z      M193.04,253.777c-23.178,0-41.967-18.789-41.967-41.967s18.789-41.967,41.967-41.967c23.166,0.028,41.939,18.801,41.967,41.967     C235.007,234.988,216.218,253.777,193.04,253.777z M444.843,488.794c-23.178,0-41.967-18.789-41.967-41.967     c0-23.178,18.789-41.967,41.967-41.967c23.166,0.028,41.939,18.801,41.967,41.967     C486.811,470.005,468.021,488.794,444.843,488.794z" fill="#FFFFFF"/>
			<path d="M58.745,52.335c4.636,0,8.393-3.758,8.393-8.393s-3.758-8.393-8.393-8.393c-13.907,0-25.18,11.274-25.18,25.18     c0,13.907,11.274,25.18,25.18,25.18c4.636,0,8.393-3.758,8.393-8.393c0-4.636-3.758-8.393-8.393-8.393     c-4.636,0-8.393-3.758-8.393-8.393C50.352,56.093,54.109,52.335,58.745,52.335z" fill="#FFFFFF"/>
			<path d="M100.712,446.827c0,4.636,3.758,8.393,8.393,8.393s8.393-3.758,8.393-8.393c0-4.636,3.758-8.393,8.393-8.393     c4.636,0,8.393,3.758,8.393,8.393c0,4.636,3.758,8.393,8.393,8.393s8.393-3.758,8.393-8.393c0-13.907-11.274-25.18-25.18-25.18     C111.986,421.646,100.712,432.92,100.712,446.827z" fill="#FFFFFF"/>
			<path d="M444.843,161.45c13.907,0,25.18-11.274,25.18-25.18c0-4.636-3.758-8.393-8.393-8.393s-8.393,3.758-8.393,8.393     s-3.758,8.393-8.393,8.393c-4.636,0-8.393-3.758-8.393-8.393s-3.758-8.393-8.393-8.393s-8.393,3.758-8.393,8.393     C419.663,150.176,430.937,161.45,444.843,161.45z" fill="#FFFFFF"/>
			<path d="M193.04,186.63c-13.907,0-25.18,11.274-25.18,25.18c0,2.226,0.884,4.361,2.458,5.935     c1.574,1.574,3.709,2.458,5.935,2.458c4.636,0,8.393-3.758,8.393-8.393s3.758-8.393,8.393-8.393s8.393,3.758,8.393,8.393     s3.758,8.393,8.393,8.393s8.393-3.758,8.393-8.393C218.22,197.904,206.947,186.63,193.04,186.63z" fill="#FFFFFF"/>
			<path d="M444.843,438.433c4.636,0,8.393-3.758,8.393-8.393s-3.758-8.393-8.393-8.393c-13.907,0-25.18,11.274-25.18,25.18     c0,13.907,11.274,25.18,25.18,25.18c4.636,0,8.393-3.758,8.393-8.393s-3.758-8.393-8.393-8.393c-4.636,0-8.393-3.758-8.393-8.393     C436.45,442.191,440.208,438.433,444.843,438.433z" fill="#FFFFFF"/>
		</g>
	</g>
</g>
<g>
</g>
<g>
</g>
<g>
</g>
<g>
</g>
<g>
</g>
<g>
</g>
<g>
</g>
<g>
</g>
<g>
</g>
<g>
</g>
<g>
</g>
<g>
</g>
<g>
</g>
<g>
</g>
<g>
</g>
</svg>
